<svg xmlns="http://www.w3.org/2000/svg" viewBox="0 0 1024 1024">
  <circle cx="512" cy="512" r="512" fill="#F5F5F5" />
  <path d="M512 1024C229.23047 1024 0 794.76953 0 512S229.23047 0 512 0s512 229.23047 512 512-229.23047 512-512 512zm0-960C258.21094 64 64 258.21094 64 512s194.21094 448 448 448 448-194.21094 448-448S765.78906 64 512 64z" fill="#4E342E"/>
  <path d="M695.382812 371.804688l-150.648438 113.527344-150.648438-113.527344H272v512h480v-512h-56.617188zm-160.148437 360.148438c0 9.84375-7.957032 17.800781-17.800781 17.800781h-22.867188c-9.84375 0-17.800781-7.957031-17.800781-17.800781V582.398438c0-9.84375 7.957031-17.800781 17.800781-17.800781h22.867188c9.84375 0 17.800781 7.957031 17.800781 17.800781zm-128 0c0 9.84375-7.957032 17.800781-17.800781 17.800781h-22.867188c-9.84375 0-17.800781-7.957031-17.800781-17.800781V582.398438c0-9.84375 7.957031-17.800781 17.800781-17.800781h22.867188c9.84375 0 17.800781 7.957031 17.800781 17.800781zM512 431.625c-26.460938 0-47.882812-21.421875-47.882812-47.882812S485.539062 336 512 336s47.882812 21.421875 47.882812 47.882812S538.460938 431.625 512 431.625zm128 0c-26.460938 0-47.882812-21.421875-47.882812-47.882812S613.539062 336 640 336s47.882812 21.421875 47.882812 47.882812S666.460938 431.625 640 431.625zm-256 0c-26.460938 0-47.882812-21.421875-47.882812-47.882812S357.539062 336 384 336s47.882812 21.421875 47.882812 47.882812S410.460938 431.625 384 431.625z" fill="#4E342E"/>
</svg>
