<?xml version="1.0" encoding="UTF-8"?>
<svg version="1.1" viewBox="0 0 1748 1240" width="1280" height="1280" xmlns="http://www.w3.org/2000/svg">
<path transform="translate(0)" d="m0 0h1748v1240h-1748z" fill="#FDF6F0"/>
<path transform="translate(852,114)" d="m0 0h59l32 3 36 6 30 7 35 11 28 11 26 12 21 11 20 12 21 14 19 14 17 14 12 11 8 7 13 12 7 8 7 7 7 8 11 13 12 16 12 17 12 19 12 21 12 23 11 25 10 27 9 30 7 30 5 29 3 28 1 15v49l-3 34-5 33-7 31-9 30-10 28-13 29-11 22-16 27-12 18-13 18-11 14-13 15-11 12-22 22-8 7-14 12-14 11-18 13-20 13-21 12-23 12-19 9-20 8-25 9-37 10-30 6-29 4-26 2h-50l-27-2-36-5-32-7-31-9-23-8-28-12-27-13-21-12-19-12-17-12-16-12-14-12-8-7-10-9-28-28-9-11-9-10-12-16-12-17-11-17-15-26-13-26-12-29-10-28-8-29-7-33-4-29-2-22v-65l4-38 7-38 8-30 11-33 10-24 12-25 11-21 13-21 13-19 12-16 13-16 9-10 7-8 30-30 11-9 9-8 20-15 17-12 21-13 27-15 23-11 27-11 36-12 32-8 27-5 23-3z" fill="#FDF6F0"/>
<path transform="translate(852,114)" d="m0 0h59l32 3 36 6 30 7 35 11 28 11 26 12 21 11 20 12 21 14 19 14 17 14 12 11 8 7 13 12 7 8 7 7 7 8 11 13 12 16 12 17 12 19 12 21 12 23 11 25 10 27 9 30 7 30 5 29 3 28 1 15v49l-3 34-5 33-7 31-9 30-10 28-13 29-11 22-16 27-12 18-13 18-11 14-13 15-11 12-22 22-8 7-14 12-14 11-18 13-20 13-21 12-23 12-19 9-20 8-25 9-37 10-30 6-29 4-26 2h-50l-27-2-36-5-32-7-31-9-23-8-28-12-27-13-21-12-19-12-17-12-16-12-14-12-8-7-10-9-28-28-9-11-9-10-12-16-12-17-11-17-15-26-13-26-12-29-10-28-8-29-7-33-4-29-2-22v-65l4-38 7-38 8-30 11-33 10-24 12-25 11-21 13-21 13-19 12-16 13-16 9-10 7-8 30-30 11-9 9-8 20-15 17-12 21-13 27-15 23-11 27-11 36-12 32-8 27-5 23-3zm13 31-30 2-30 4-29 6-26 7-27 9-29 12-27 13-27 16-18 12-18 13-13 11-11 9-9 9-8 7-12 12-7 8-10 11-9 11-12 16-14 20-13 22-13 24-11 24-11 29-9 29-6 26-6 36-3 34v44l3 35 6 36 6 26 9 29 9 24 15 33 13 24 15 24 14 19 10 13 11 13 18 20 12 12 8 7 11 10 11 9 21 16 20 13 20 12 23 12 26 12 24 9 25 8 24 6 32 6 25 3 27 2h35l27-2 42-6 40-10 33-11 26-11 25-12 23-13 27-18 16-12 10-8 13-11 12-11 25-25 9-11 8-9 12-16 12-17 13-21 9-16 10-19 11-25 10-28 9-30 6-27 5-33 2-22 1-35-1-26-3-30-5-30-6-26-10-33-10-26-9-20-12-24-10-17-16-24-14-19-11-13-9-11-15-16-14-14-8-7-13-11-14-11-18-13-17-11-22-13-19-10-27-12-30-11-28-8-27-6-32-5-19-2-17-1z" fill="#4B2019"/>
<path transform="translate(875,539)" d="m0 0 9 1 16 5 20 9 18 10 16 10 20 12 21 13 32 19 21 12 24 13 21 10 3 3-1 5-4 4-4 1h-16l-18-4-24-10-15-8-17-11v-13l-4-8-8-7-12-6-21-6-30-4-17-1h-42l-15 1-22 11-19 9 1 5 5-1 37-18 18-1h29l32 2 26 4 16 5 12 6 7 8 1 3v8l-3 7-7 2h-12l-29-4-16-3-9-1h-11l-18 2-12 3-14 7-15 11-17 10-21 10-19 6-15 3-8 1h-26l-24-4-18-4-30-3v-90h23l31-4 40-8 56-14 31-9z" fill="#4B2019"/>
<path transform="translate(942,724)" d="m0 0h11l10 2 10 4 10 8 7 9 8 16 6 23 6 21 7 16 11 17 11 14 11 12 8 7 13 12 13 14 1 2h6l9-6 7-8 5-11 2-7 1-8v-9l-3-16-8-16-9-10-12-7-10-3-12-2-4-3v-3l9-3 13 1 14 5 11 7 9 8 10 14 8 17 3 11 1 8v15l-3 16-5 13-6 11-11 12-5 7-1 3-1 16-3 11-6 8-6 4h-88v-10l6-5 18-8 2-2-1-5-3-7-1-17-12-5-15-8-14-11-6-6h-5l-1 2-1 81-4 2h-24l-9-3-2-5 3-5 10-10 5-10 2-14v-26l-3-15-5-10-9-11-3-8v-7l4-9 6-16 1-4v-18l-4-10-6-7-8-4-24-6-8-6-5-7 3-2 4-4-1-5-1-3 15-3 10-5 9-11 10-7z" fill="#FDF6F0"/>
<path transform="translate(940,716)" d="m0 0h15l16 4 12 7 6 5 9 12 7 14 5 16 5 21 7 19 8 14 10 14 10 11 7 8 8 7 12 11 12 13 6-3 7-10 3-7 2-16-2-15-5-12-6-8-8-7-11-5-16-3-8-5-2-4v-7l5-6 10-3h12l15 4 15 8 11 9 11 14 9 16 4 10 3 15v21l-3 15-6 16-9 14-12 13-1 3-2 21-4 10-9 10-6 4h-96l-4-4v-14l3-6 7-6 14-6-2-9v-12l-9-3-15-8-13-10-1 70-3 5-4 3h-37l-8-5-3-4-1-6 2-7 8-9 5-5 3-6 2-14v-22l-3-15-4-8-10-12-3-9v-11l4-10 5-11 2-8v-14l-4-9-6-5-9-3-16-4-8-4-9-9-4-8-1-7 3-9 6-5 19-4 7-4 7-9 12-9 5-2zm2 8-9 2-11 8-8 10-10 5-15 3 2 5-1 5-6 3 3 5 4 5 6 4 24 6 8 4 6 7 4 10v18l-6 18-4 8-1 3v7l3 8 10 12 4 9 3 15v26l-2 14-5 10-12 12-1 5 4 4 7 2h24l4-2 1-81 1-2h5l8 8 14 10 16 8 9 4 1 17 4 9-1 4-22 11-3 3v10h88l8-6 5-9 2-8 1-16 4-8 10-10 7-11 5-11 4-15 1-7v-15l-3-16-5-12-6-11-10-13-11-9-14-7-14-3-11 1-4 2 1 4 3 2 16 3 12 5 9 7 7 8 7 15 3 16v9l-2 12-5 12-6 8-7 6-4 2h-6l-7-8-11-12-15-14-6-5-7-8-12-15-12-20-6-15-7-26-5-17-8-16-9-10-11-7-9-3-7-1z" fill="#4B2019"/>
<path transform="translate(874,532)" d="m0 0 12 1 18 6 29 14 28 17 21 13 17 10 28 17 25 14 16 9 29 14 5 5 1 7-3 7-5 5-8 2h-15l-16-3-15-5-25-12-17-10-5-2-8 4-3 1h-16l-52-8-22 1-18 4-11 6-17 12-15 9-16 8-19 7-15 4-15 2h-30l-19-3-21-5-31-3-6-2v-101l1-1h27l33-4 35-7 56-14 38-11zm1 7-33 11-48 13-47 11-32 6-25 3h-23v90l30 3 34 7 8 1h26l18-3 15-4 16-6 25-13 20-14 10-6 11-4 12-2 12-1h11l20 3 25 4 9 1h12l8-3 2-6v-8l-3-6-8-7-14-6-17-4-20-3-32-2h-29l-18 1-39 19-4-1v-4l41-20 15-1h42l26 2 26 4 21 7 10 6 7 8 2 5v13l14 9 16 9 23 10 15 4 6 1h16l5-2 4-5-1-4-8-5-23-11-27-15-27-16-25-15-21-13-35-21-16-8-18-8-15-4z" fill="#FEFEFD"/>
<path transform="translate(1211,366)" d="m0 0 4 5 5 8-2 4-19 19-7 8-3 3 9-2 34-10 4 4 3 5-2 4-16 16-7 8-7 7 17-5 25-8 4 1 7 11-1 3-64 18-4-2-7-12 6-7 11-12 8-9-16 4-18 5h-3l-8-13 2-4 9-10 12-13 22-24z" fill="#4B2019"/>
<path transform="translate(890,203)" d="m0 0h1l-1 10-12 59-3 1-14 1-5-12-8-21v-3h-2l-1 10-5 25-2 3-16 1-8-20-15-41-1-5 5-1h12l14 41 1 2 8-44 2-2h11l15 43 2-8 6-37z" fill="#4B2019"/>
<path transform="translate(532,385)" d="m0 0 5 1 28 17 26 16-6 11-2 2-7 1-38 1-2 1 28 17 5 4-7 12-5-1-51-31-3-3 7-11 7-2 37-1 4-1-21-13-12-7 5-10z" fill="#4B2019"/>
<path transform="translate(589,329)" d="m0 0 5 1 1 14-12 2-5 4-3 8 2 11 6 8 7 4 4 1h7l8-4 4-8-1-8-3-3-9 10-4-2-5-4 1-4 9-9 7-8 4-3 10 9 4 6 2 6v12l-4 10-6 8-9 6-6 2h-15l-9-3-9-7-6-7-4-9-1-4v-11l4-11 9-10 8-5z" fill="#4B2019"/>
<path transform="translate(1172,326)" d="m0 0 7 6 3 3-1 6-17 39-10 23-7-6-5-5 2-6 3-6-2-4-15-15-10 4-4 1-10-11 3-3 41-17z" fill="#4B2019"/>
<path transform="translate(543,473)" d="m0 0h15l-3 10-2 5-14 1-5 12-4 12 10 8-2 9-3 7-5-3-16-15-8-7-12-11-8-7-5-4 1-7 4-8z" fill="#4B2019"/>
<path transform="translate(1006,225)" d="m0 0 14 5-1 6-8 20 21 7 1-5 7-18 3-1 12 5-3 10-19 48-2 5-10-3-4-2 1-6 8-20-21-7-1 5-7 18-4 1-11-5 3-10 18-46z" fill="#4B2019"/>
<path transform="translate(1103,271)" d="m0 0 4 2 16 11 7 6 4 8v11l-5 8-7 6-3 1h-12l-10-5-6-4-13 18h-4l-10-7 7-11 13-18 12-17z" fill="#4B2019"/>
<path transform="translate(635,282)" d="m0 0 4 2 5 7-2 4-15 11 4 6 4 4 13-10 5-2 7 9-1 3-12 9-3 2 2 4 4 6 4-1 14-11 4 2 5 6-1 4-13 10-14 11-4-1-9-12-14-18-10-13-6-9 12-10 13-10z" fill="#4B2019"/>
<path transform="translate(738,229)" d="m0 0h10l3 1-1 12-2 2h-10l-7 3-1 6 2 2 5 1 14 1 11 4 6 7 1 3v12l-6 9-10 6-11 3h-9l-8-2 1-10 1-5 6 1h12l6-4 1-5-3-3-3-1-17-2-8-4-5-6-2-6 1-9 6-9 6-4z" fill="#4B2019"/>
<path transform="translate(1256,473)" d="m0 0 9 2 8 6 5 10 1 6v9l-1 4h-8l-6-1v-12l-3-7-5-1-3 3-3 21-4 8-6 5-6 2-10-1-6-4-6-7-4-11-1-12 2-10 10 1 5 1-1 8v10l3 6 7 1 3-6 2-15 4-9 6-5z" fill="#4B2019"/>
<path transform="translate(941,210)" d="m0 0 12 2 34 7-1 11-1 3-16-3-5 26-5 24-1 2-10-1-5-1 2-13 8-38 1-3-9-1-7-2z" fill="#4B2019"/>
<path transform="translate(665,263)" d="m0 0h3l14 25 11 19v2l11-6 9-5h2l6 12-23 13-11 6-16-28-14-25-3-6 9-6z" fill="#4B2019"/>
<path transform="translate(958,739)" d="m0 0 6 2 7 9 8 18 2 6 1 9-3 10-8 7-6 2h-8l-8-4-5-8-1-4v-10l3-14-1-9-4-6-1-5 2-2 5 1 5 5 3 9v9l-3 14v7l3 6 4 2 8-1 4-4 1-2v-9l-6-16-6-11-5-4v-5z" fill="#4B2019"/>
<path transform="translate(909,207)" d="m0 0 16 1-4 46-2 21h-12l-4-1 4-46z" fill="#4B2019"/>
<path transform="translate(1108,290)" d="m0 0 5 2 5 6v7l-5 5-8-1-6-4 1-4z" fill="#FDF6F0"/>
<path transform="translate(1161,346)" d="m0 0 2 1-8 17h-3l-8-8 1-3z" fill="#FDF6F0"/>
<path transform="translate(503,489)" d="m0 0h21l-5 14-5-3-11-10z" fill="#FDF6F0"/>
<path transform="translate(920,748)" d="m0 0h5l2 2-1 5-5 1-2-2v-5z" fill="#4B2019"/>
</svg>
